# xmcd
#
# Track frame offsets:
#	150
#	13953
#	28833
#	39566
#	54267
#	71151
#	84249
#	97711
#	113937
#	126075
#	141266
#	153563
#	165359
#	178921
#	190596
#
# Disc length: 2740 seconds
#
# Revision: 1
# Processed by: cddbd v1.5.2PL0 Copyright (c) Steve Scherf et al.
# Submitted via: audiograbber 1.83.01
#
DISCID=c30ab20f
DTITLE=Roberta and Santiago - Roberta and Santiago - Ao Vivo
DYEAR=2009
DGENRE=Sertaneja
TTITLE0=Mundo Gira
TTITLE1=Eu de Ca Voce de La
TTITLE2=Me Leva
TTITLE3=Cara de Pau
TTITLE4=Pergunta Pro Seu Coracao
TTITLE5=Ursinho de Estimacao
TTITLE6=Amor Vira Lata
TTITLE7=Perola
TTITLE8=Magica
TTITLE9=Na Solidao
TTITLE10=Tente Entender
TTITLE11=Teu Passado Te Condena
TTITLE12=Te Amo Paixao
TTITLE13=Pensando Nela
TTITLE14=Estou Aqui
EXTD=www.robertaesantiago.com.br\nAlex Projeti - Omega Drakon\nprojeti@yahoo.co
EXTD=m
EXTT0=
EXTT1=
EXTT2=
EXTT3=
EXTT4=
EXTT5=
EXTT6=
EXTT7=
EXTT8=
EXTT9=
EXTT10=
EXTT11=
EXTT12=
EXTT13=
EXTT14=
PLAYORDER=
